<?xml version="1.0" encoding="UTF-8" standalone="no"?><!-- Generator: Gravit.io --><svg xmlns="http://www.w3.org/2000/svg" xmlns:xlink="http://www.w3.org/1999/xlink" style="isolation:isolate" viewBox="0 0 422.997 223.998" width="422.997pt" height="223.998pt"><defs><clipPath id="_clipPath_cBn65fGe7yBFQnih63gSprjvpQLYmimP"><rect width="422.997" height="223.998"/></clipPath></defs><g clip-path="url(#_clipPath_cBn65fGe7yBFQnih63gSprjvpQLYmimP)"><g><line x1="343.998" y1="43.999" x2="38.998" y2="190.999" vector-effect="non-scaling-stroke" stroke-width="1" stroke="rgb(0,0,255)" stroke-linejoin="miter" stroke-linecap="square" stroke-miterlimit="3"/><line x1="227.998" y1="190.999" x2="343.998" y2="43.999" vector-effect="non-scaling-stroke" stroke-width="1" stroke="rgb(255,0,0)" stroke-linejoin="miter" stroke-linecap="square" stroke-miterlimit="3"/></g><g><path d=" M 84.983 168.933 C 88.197 175.612 89.998 183.097 89.998 190.999" fill="none" vector-effect="non-scaling-stroke" stroke-width="1" stroke="rgb(0,0,255)" stroke-linejoin="miter" stroke-linecap="square" stroke-miterlimit="3"/><text transform="matrix(1,0,0,1,92.998,184.876)" style="font-family:'Noto Sans';font-weight:400;font-size:20px;font-style:italic;fill:#0000ff;stroke:none;">α</text></g><g><path d=" M 259.676 151.04 C 271.446 160.386 278.998 174.817 278.998 190.999" fill="none" vector-effect="non-scaling-stroke" stroke-width="1" stroke="rgb(255,0,0)" stroke-linejoin="miter" stroke-linecap="square" stroke-miterlimit="3"/><text transform="matrix(1,0,0,1,286.457,173.876)" style="font-family:'Noto Sans';font-weight:400;font-size:20px;font-style:italic;fill:#ff0000;stroke:none;">β</text></g><g><line x1="38.998" y1="0.999" x2="38.998" y2="222.999" vector-effect="non-scaling-stroke" stroke-width="2" stroke="rgb(0,0,0)" stroke-linejoin="miter" stroke-linecap="square" stroke-miterlimit="3"/><line x1="0.998" y1="190.999" x2="421.998" y2="190.999" vector-effect="non-scaling-stroke" stroke-width="2" stroke="rgb(0,0,0)" stroke-linejoin="miter" stroke-linecap="square" stroke-miterlimit="3"/><text transform="matrix(1,0,0,1,45.221,24.141)" style="font-family:'Open Sans';font-weight:400;font-size:20px;font-style:italic;fill:#000000;stroke:none;">x</text><text transform="matrix(1,0,0,1,407.924,182.258)" style="font-family:'Open Sans';font-weight:400;font-size:20px;font-style:italic;fill:#000000;stroke:none;">y</text></g><g><circle vector-effect="non-scaling-stroke" cx="343.99834651561036" cy="43.99915497722381" r="5.5" fill="rgb(96,125,139)"/><circle vector-effect="non-scaling-stroke" cx="38.99834651561048" cy="190.9991549772238" r="5.5" fill="rgb(0,0,255)"/><circle vector-effect="non-scaling-stroke" cx="227.99834651561048" cy="190.9991549772238" r="5.5" fill="rgb(255,0,0)"/><text transform="matrix(1,0,0,1,357.998,43.376)" style="font-family:'Noto Sans';font-weight:400;font-size:20px;font-style:italic;fill:#607d8b;stroke:none;">(</text><text transform="matrix(1,0,0,1,363.799,43.376)" style="font-family:'Noto Sans';font-weight:400;font-size:20px;font-style:italic;fill:#0000ff;stroke:none;">α</text><text transform="matrix(1,0,0,1,374.799,43.376)" style="font-family:'Noto Sans';font-weight:400;font-size:20px;font-style:italic;fill:#607d8b;stroke:none;">, </text><text transform="matrix(1,0,0,1,385.112,43.376)" style="font-family:'Noto Sans';font-weight:400;font-size:20px;font-style:italic;fill:#ff0000;stroke:none;">β</text><text transform="matrix(1,0,0,1,397.112,43.376)" style="font-family:'Noto Sans';font-weight:400;font-size:20px;font-style:italic;fill:#607d8b;stroke:none;">)</text></g></g></svg>