<svg
  id="bug"
  width="36"
  height="36"
  viewBox="0 0 36 36"
  fill="#ABCDEF"
  xmlns="http://www.w3.org/2000/svg"
>
  <path
    d="M7.41499 4C8.41499 3 7.66499 0 5.97699 0C4.28899 0 4.41499 2 5.41499 2C6.41499 2 6.41499 4 6.41499 5C6.41499 6 7.41499 4 7.41499 4ZM3.23199 5.72C4.23199 4.72 3.48199 1.72 1.79399 1.72C0.105985 1.72 0.231985 3.72 1.23199 3.72C2.23199 3.72 2.23199 5.72 2.23199 6.72C2.23199 7.72 3.23199 5.72 3.23199 5.72Z"
  />
  <path
    d="M7.41499 4C8.41499 3 7.66499 0 5.97699 0C4.28899 0 4.41499 2 5.41499 2C6.41499 2 6.41499 4 6.41499 5C6.41499 6 7.41499 4 7.41499 4ZM3.23199 5.72C4.23199 4.72 3.48199 1.72 1.79399 1.72C0.105985 1.72 0.231985 3.72 1.23199 3.72C2.23199 3.72 2.23199 5.72 2.23199 6.72C2.23199 7.72 3.23199 5.72 3.23199 5.72Z"
    fill="white"
    fill-opacity="0.2368"
  />
  <path
    d="M29.6071 32.8559C29.7961 33.6639 30.8341 35.1359 31.6391 34.9469C32.4451 34.7569 32.7161 32.9759 32.5271 32.1699C32.3381 31.3619 31.5291 30.8629 30.7231 31.0529C29.9181 31.2429 29.4171 32.0499 29.6071 32.8559ZM24.1731 33.5049C24.1761 34.3349 24.8541 36.0029 25.6821 35.9999C26.5101 35.9959 27.1761 34.3229 27.1731 33.4939C27.1701 32.6649 26.4961 31.9969 25.6681 31.9989C24.8401 32.0029 24.1701 32.6759 24.1731 33.5049ZM18.9021 31.0589C18.5761 31.8229 18.5371 33.6219 19.2981 33.9489C20.0611 34.2729 21.3351 33.0019 21.6611 32.2389C21.9861 31.4769 21.6331 30.5959 20.8721 30.2689C20.1101 29.9439 19.2291 30.2959 18.9021 31.0589ZM13.8711 20.0189C13.0591 20.1909 11.5631 21.1919 11.7321 22.0019C11.9051 22.8119 13.6771 23.1259 14.4891 22.9549C15.3001 22.7839 15.8181 21.9879 15.6491 21.1779C15.4771 20.3679 14.6841 19.8479 13.8711 20.0189ZM11.8341 15.0189C11.0221 15.1909 9.52607 16.1919 9.69507 17.0019C9.86807 17.8119 11.6401 18.1259 12.4521 17.9549C13.2631 17.7839 13.7811 16.9879 13.6121 16.1779C13.4401 15.3679 12.6461 14.8479 11.8341 15.0189Z"
  />
  <path
    d="M29.6071 32.8559C29.7961 33.6639 30.8341 35.1359 31.6391 34.9469C32.4451 34.7569 32.7161 32.9759 32.5271 32.1699C32.3381 31.3619 31.5291 30.8629 30.7231 31.0529C29.9181 31.2429 29.4171 32.0499 29.6071 32.8559ZM24.1731 33.5049C24.1761 34.3349 24.8541 36.0029 25.6821 35.9999C26.5101 35.9959 27.1761 34.3229 27.1731 33.4939C27.1701 32.6649 26.4961 31.9969 25.6681 31.9989C24.8401 32.0029 24.1701 32.6759 24.1731 33.5049ZM18.9021 31.0589C18.5761 31.8229 18.5371 33.6219 19.2981 33.9489C20.0611 34.2729 21.3351 33.0019 21.6611 32.2389C21.9861 31.4769 21.6331 30.5959 20.8721 30.2689C20.1101 29.9439 19.2291 30.2959 18.9021 31.0589ZM13.8711 20.0189C13.0591 20.1909 11.5631 21.1919 11.7321 22.0019C11.9051 22.8119 13.6771 23.1259 14.4891 22.9549C15.3001 22.7839 15.8181 21.9879 15.6491 21.1779C15.4771 20.3679 14.6841 19.8479 13.8711 20.0189ZM11.8341 15.0189C11.0221 15.1909 9.52607 16.1919 9.69507 17.0019C9.86807 17.8119 11.6401 18.1259 12.4521 17.9549C13.2631 17.7839 13.7811 16.9879 13.6121 16.1779C13.4401 15.3679 12.6461 14.8479 11.8341 15.0189Z"
    fill="black"
    fill-opacity="0.2025"
  />
  <path
    d="M27.2441 34.0002C30.0751 34.0002 32.1701 33.1232 32.5101 32.9732C34.7811 31.9632 35.8031 29.3042 34.7941 27.0342C33.7951 24.7842 31.1781 23.7592 28.9221 24.7202C28.7891 24.7702 27.1291 25.3692 25.5791 24.6482C23.7281 23.7872 22.5841 21.3392 21.9511 19.4392C21.8071 19.0092 21.5661 18.1652 21.2651 17.1232C19.3991 10.6522 18.4331 8.83824 17.2821 7.30324C13.5711 2.35224 7.69009 2.00724 4.79909 2.58724C2.36209 3.07424 0.78109 5.44524 1.26909 7.88224C1.75709 10.3202 4.12909 11.9022 6.56509 11.4122C6.72709 11.3862 8.76909 11.1062 9.98909 12.5812C10.6321 13.8682 12.0691 17.7092 12.6191 19.6152C12.9651 20.8142 13.2481 21.7862 13.4131 22.2822C15.1861 27.5992 18.0791 31.1752 22.0161 32.9112C23.8681 33.7292 25.6701 34.0002 27.2441 34.0002Z"
  />
  <path
    d="M6.68188 6C7.23417 6 7.68188 5.55228 7.68188 5C7.68188 4.44772 7.23417 4 6.68188 4C6.1296 4 5.68188 4.44772 5.68188 5C5.68188 5.55228 6.1296 6 6.68188 6Z"
    fill="white"
  />
  <path
    d="M30.9229 32.9639C30.8339 32.9639 30.7429 32.9519 30.6539 32.9279C30.1219 32.7799 29.8099 32.2289 29.9579 31.6969C30.7149 28.9749 29.1879 27.1549 29.1729 27.1369C28.8139 26.7178 28.8609 26.0858 29.2799 25.7269C29.6979 25.3679 30.3309 25.4149 30.6899 25.8339C30.7819 25.9409 32.9239 28.4939 31.8849 32.2309C31.7629 32.6739 31.3599 32.9639 30.9229 32.9639ZM23.7239 32.4009C23.4789 32.4009 23.2339 32.3119 23.0399 32.1309C22.6369 31.7529 22.6159 31.1199 22.9929 30.7169C24.4779 29.1299 24.4459 26.5239 24.4449 26.4969C24.4289 25.9449 24.8639 25.4849 25.4169 25.4689C25.9589 25.4639 26.4299 25.8879 26.4449 26.4409C26.4489 26.5799 26.5179 29.8778 24.4539 32.0849C24.2569 32.2948 23.9899 32.4009 23.7239 32.4009ZM15.1819 23.7049C14.7019 23.7049 14.2779 23.3579 14.1969 22.8679C14.1069 22.3239 14.4749 21.8079 15.0199 21.7189C18.0939 21.2089 19.7939 19.3419 19.8109 19.3229C20.1759 18.9129 20.8089 18.8739 21.2199 19.2389C21.6319 19.6039 21.6729 20.2319 21.3109 20.6449C21.2239 20.7439 19.1549 23.0599 15.3469 23.6909C15.2909 23.7009 15.2359 23.7049 15.1819 23.7049ZM18.1029 28.5619C17.6779 28.5619 17.2839 28.2899 17.1489 27.8639C16.9829 27.3379 17.2749 26.7749 17.8009 26.6089C20.4939 25.7558 21.6809 23.7789 21.6929 23.7589C21.9729 23.2819 22.5849 23.1219 23.0609 23.4019C23.5379 23.6809 23.6969 24.2949 23.4179 24.7699C23.3549 24.8779 21.8229 27.4329 18.4049 28.5139C18.3039 28.5469 18.2019 28.5619 18.1029 28.5619ZM13.4839 17.8919C12.9879 17.8919 12.5569 17.5229 12.4929 17.0169C12.4239 16.4689 12.8119 15.9689 13.3599 15.8989C16.0489 15.5589 18.0169 13.9279 18.0359 13.9109C18.4579 13.5569 19.0889 13.6079 19.4439 14.0299C19.7999 14.4509 19.7489 15.0799 19.3289 15.4369C19.2319 15.5199 16.9089 17.4659 13.6109 17.8829C13.5679 17.8889 13.5259 17.8919 13.4839 17.8919ZM11.6629 13.1249C11.2379 13.1249 10.8439 12.8519 10.7089 12.4239C10.5439 11.8969 10.8359 11.3359 11.3629 11.1699C14.4929 10.1869 15.6159 8.47785 15.6619 8.40585C15.9569 7.94385 16.5729 7.80085 17.0369 8.09385C17.5019 8.38585 17.6479 8.99285 17.3609 9.45985C17.3009 9.55685 15.8549 11.8559 11.9619 13.0789C11.8629 13.1099 11.7619 13.1249 11.6629 13.1249Z"
  />
  <path
    d="M30.9229 32.9639C30.8339 32.9639 30.7429 32.9519 30.6539 32.9279C30.1219 32.7799 29.8099 32.2289 29.9579 31.6969C30.7149 28.9749 29.1879 27.1549 29.1729 27.1369C28.8139 26.7178 28.8609 26.0858 29.2799 25.7269C29.6979 25.3679 30.3309 25.4149 30.6899 25.8339C30.7819 25.9409 32.9239 28.4939 31.8849 32.2309C31.7629 32.6739 31.3599 32.9639 30.9229 32.9639ZM23.7239 32.4009C23.4789 32.4009 23.2339 32.3119 23.0399 32.1309C22.6369 31.7529 22.6159 31.1199 22.9929 30.7169C24.4779 29.1299 24.4459 26.5239 24.4449 26.4969C24.4289 25.9449 24.8639 25.4849 25.4169 25.4689C25.9589 25.4639 26.4299 25.8879 26.4449 26.4409C26.4489 26.5799 26.5179 29.8778 24.4539 32.0849C24.2569 32.2948 23.9899 32.4009 23.7239 32.4009ZM15.1819 23.7049C14.7019 23.7049 14.2779 23.3579 14.1969 22.8679C14.1069 22.3239 14.4749 21.8079 15.0199 21.7189C18.0939 21.2089 19.7939 19.3419 19.8109 19.3229C20.1759 18.9129 20.8089 18.8739 21.2199 19.2389C21.6319 19.6039 21.6729 20.2319 21.3109 20.6449C21.2239 20.7439 19.1549 23.0599 15.3469 23.6909C15.2909 23.7009 15.2359 23.7049 15.1819 23.7049ZM18.1029 28.5619C17.6779 28.5619 17.2839 28.2899 17.1489 27.8639C16.9829 27.3379 17.2749 26.7749 17.8009 26.6089C20.4939 25.7558 21.6809 23.7789 21.6929 23.7589C21.9729 23.2819 22.5849 23.1219 23.0609 23.4019C23.5379 23.6809 23.6969 24.2949 23.4179 24.7699C23.3549 24.8779 21.8229 27.4329 18.4049 28.5139C18.3039 28.5469 18.2019 28.5619 18.1029 28.5619ZM13.4839 17.8919C12.9879 17.8919 12.5569 17.5229 12.4929 17.0169C12.4239 16.4689 12.8119 15.9689 13.3599 15.8989C16.0489 15.5589 18.0169 13.9279 18.0359 13.9109C18.4579 13.5569 19.0889 13.6079 19.4439 14.0299C19.7999 14.4509 19.7489 15.0799 19.3289 15.4369C19.2319 15.5199 16.9089 17.4659 13.6109 17.8829C13.5679 17.8889 13.5259 17.8919 13.4839 17.8919ZM11.6629 13.1249C11.2379 13.1249 10.8439 12.8519 10.7089 12.4239C10.5439 11.8969 10.8359 11.3359 11.3629 11.1699C14.4929 10.1869 15.6159 8.47785 15.6619 8.40585C15.9569 7.94385 16.5729 7.80085 17.0369 8.09385C17.5019 8.38585 17.6479 8.99285 17.3609 9.45985C17.3009 9.55685 15.8549 11.8559 11.9619 13.0789C11.8629 13.1099 11.7619 13.1249 11.6629 13.1249Z"
    fill="black"
    fill-opacity="0.2025"
  />
</svg>
