<svg width="72" height="36" viewBox="0 0 72 36" fill="none" xmlns="http://www.w3.org/2000/svg">
<path d="M5.50592 30.1669C-1.52408 23.1379 -0.891081 11.1079 6.91992 3.29688L32.3759 28.7529C24.5649 36.5639 12.5349 37.1959 5.50592 30.1669V30.1669Z" fill="#8B5E3C"/>
<path d="M6.91992 3.29688C3.01492 7.20188 5.54692 16.0669 12.5759 23.0969C19.6069 30.1259 28.4709 32.6579 32.3749 28.7529C36.2799 24.8489 33.7489 15.9839 26.7179 8.95388C19.6899 1.92388 10.8249 -0.607117 6.91992 3.29688Z" fill="#603913"/>
<path d="M31.591 24.2168C31.82 24.4458 32.151 24.5528 32.478 24.4928C32.865 24.4218 33.174 24.1308 33.268 23.7478C33.335 23.4788 34.843 17.0778 30.255 12.4898C29.135 11.3698 27.472 8.71582 26.999 7.94582C26.599 7.53082 26.266 7.67582 25.501 6.91082C25.151 6.56082 24.096 4.66282 21.062 7.53982C20.712 7.87182 20.672 8.41781 20.946 8.81481L31.474 24.0778C31.51 24.1278 31.549 24.1748 31.591 24.2168V24.2168Z" fill="#F5F8FA"/>
<path d="M24.271 7.56196C24.978 8.26896 25.729 8.97896 25.729 8.97896C25.729 8.97896 28.133 11.783 29.548 13.197C33.79 17.44 32.298 23.51 32.298 23.51L20.646 7.83296C20.646 7.83296 23.438 6.79096 24.271 7.56196ZM25.542 6.20796C23.709 4.76996 20.765 5.89296 20.042 6.60396C19.359 7.28696 19.575 8.58796 20.123 9.38196L30.651 24.645C30.721 24.746 30.798 24.838 30.883 24.923C31.343 25.383 32.004 25.596 32.658 25.476C33.432 25.334 34.051 24.751 34.239 23.987C34.311 23.694 35.944 16.764 30.962 11.782C30.07 10.89 29.024 10.044 28.053 8.86896C27.724 8.44596 26.867 7.42796 25.979 6.54096L25.542 6.20796V6.20796Z" fill="#603913"/>
<path d="M8.33402 4.71106C5.21002 7.83506 7.74202 15.4331 13.991 21.6811C20.238 27.9291 27.837 30.4621 30.961 27.3381C34.085 24.2141 31.552 16.6151 25.304 10.3671C19.056 4.12006 11.458 1.58706 8.33402 4.71106V4.71106Z" fill="#F5F8FA"/>
<path d="M10.4109 6.87709C8.09292 9.19509 10.3279 15.1911 15.4049 20.2681C20.4829 25.3461 26.4769 27.5801 28.7959 25.2621C31.1139 22.9441 28.8789 16.9491 23.8019 11.8711C18.7259 6.79309 12.7299 4.55809 10.4109 6.87709V6.87709Z" fill="#99AAB5"/>
<path d="M20.1989 9.93885L21.3749 9.60385C21.9369 9.29185 22.7289 9.27085 23.2709 9.77085L24.4819 11.0439C25.0549 11.7339 26.4009 13.1809 27.4769 14.2569C31.2839 18.0639 29.7959 22.9789 29.7299 23.1869C29.6729 23.3689 29.5169 23.5019 29.3289 23.5309C29.1699 23.5549 29.0109 23.5019 28.8999 23.3899C28.8789 23.3689 28.8599 23.3469 28.8419 23.3219L20.0449 10.6529C19.9659 10.5389 19.9369 10.3989 19.9669 10.2629C19.9959 10.1279 20.0799 10.0109 20.1989 9.93885V9.93885Z" fill="#99AAB5"/>
<path d="M23.76 26.0562C23.76 26.0562 20.551 23.9712 19.989 22.2852C19.361 20.4002 15.327 20.0332 14.699 18.1472C14.072 16.2622 13.023 13.3822 12.446 12.2292C11.87 11.0762 11.188 12.2282 10.56 10.3432C9.93205 8.45622 8.67505 7.19922 8.67505 7.19922C8.67505 7.19922 8.67505 16.0002 10.56 17.8852C12.446 19.7712 19.989 27.3142 20.618 26.6842C21.246 26.0562 23.76 26.0562 23.76 26.0562V26.0562Z" fill="#F5F8FA"/>
<path d="M22.8381 27.7301C22.8381 27.7301 19.1081 25.1931 18.5221 23.4361C17.8671 21.4721 13.2321 20.8171 12.5781 18.8531C11.9231 16.8891 10.9821 13.3671 10.6651 12.9611C9.74906 11.7811 9.35606 12.9601 8.70106 10.9971C8.04606 9.03214 6.73706 7.72314 6.73706 7.72314C6.73706 7.72314 6.73706 16.8891 8.70106 18.8531C10.6651 20.8181 18.5211 28.6741 19.1771 28.0191C19.8321 27.3651 22.8381 27.7301 22.8381 27.7301V27.7301Z" fill="#603913"/>
<path d="M21.7691 29.4601C21.7691 29.4601 18.1591 27.1151 17.5271 25.2181C16.8201 23.0971 11.1621 21.6821 10.4551 19.5611C9.74807 17.4391 9.74807 14.6111 9.04107 13.9041C8.33407 13.1961 7.62707 13.9041 6.92007 11.7821C6.21307 9.66107 4.79907 8.24707 4.79907 8.24707C4.79907 8.24707 4.79907 18.1471 6.92007 20.2681C9.04107 22.3891 17.5261 30.8741 18.2331 30.1671C18.9411 29.4601 21.7691 29.4601 21.7691 29.4601Z" fill="#8B5E3C"/>
<path d="M10.8109 32.8528C10.9019 32.5678 11.6469 32.7918 11.9239 32.8538C18.8579 34.3798 23.5839 31.4688 23.6359 31.4448C23.9079 31.3088 24.2149 31.4108 24.3209 31.6688C24.4269 31.9268 24.2949 32.2458 24.0249 32.3808C23.7999 32.4928 19.2169 34.9308 11.8999 33.3198C11.8089 33.2988 11.1789 33.1888 11.1189 33.1288C10.9959 33.0058 10.7489 33.0448 10.8109 32.8528V32.8528ZM2.44694 22.8848C2.56194 22.9988 2.55494 23.0968 2.73694 23.0498C3.02494 22.9768 3.03594 22.5328 2.99194 22.2518C2.49994 19.0598 3.35194 15.7478 4.83294 11.8998C4.93994 11.6188 4.80594 11.3248 4.53894 11.2478C4.26694 11.1678 3.95994 11.3318 3.85194 11.6118C2.29694 15.6458 1.79494 19.2478 2.31594 22.6248C2.33294 22.7288 2.37994 22.8168 2.44694 22.8848V22.8848ZM12.8039 32.0628C12.8739 32.1338 12.9709 32.1808 13.0829 32.1948C16.8519 32.6208 19.9759 31.0578 20.1069 30.9908C20.3759 30.8538 20.5069 30.5348 20.3979 30.2768C20.2899 30.0178 19.9809 29.9208 19.7099 30.0588C19.6809 30.0738 16.9669 31.9018 13.5289 31.5118C13.2439 31.4798 12.7029 31.4958 12.6399 31.7868C12.6039 31.9638 12.6929 31.9528 12.8039 32.0628V32.0628Z" fill="#A97C50"/>
<path d="M57.978 20.424C57.924 19.62 57.841 18.842 57.731 18.099C57.598 17.209 57.432 16.371 57.246 15.586C57.075 14.863 56.89 14.189 56.698 13.569C56.41 12.638 56.114 11.831 55.846 11.169C55.319 9.86998 54.903 9.12598 54.903 9.12598L51.29 9.59198C51.29 9.59198 51.707 10.462 52.158 12.167C52.341 12.859 52.529 13.691 52.698 14.662C52.784 15.152 52.864 15.674 52.936 16.235C53.036 17.016 53.119 17.867 53.178 18.784C53.212 19.302 53.236 19.842 53.252 20.403C53.258 20.607 53.267 20.804 53.27 21.014C53.28 21.67 53.234 22.337 53.152 23.003C53.078 23.603 52.97 24.2 52.841 24.792C52.656 25.64 52.428 26.473 52.171 27.267C51.963 27.91 51.74 28.528 51.516 29.107C51.172 29.998 50.826 30.799 50.527 31.466C50.025 32.585 49.656 33.329 49.656 33.484C49.656 33.974 50.006 34.892 52.453 35.504C56.28 36.46 56.649 34.883 56.649 34.883C56.649 34.883 56.892 34.145 57.175 32.691C57.315 31.973 57.464 31.086 57.599 30.013C57.68 29.371 57.755 28.665 57.821 27.897C57.889 27.097 57.946 26.23 57.986 25.292C58.016 24.582 58.033 23.822 58.041 23.033C58.043 22.787 58.049 22.549 58.049 22.296C58.049 21.656 58.019 21.035 57.978 20.424V20.424Z" fill="#C1694F"/>
<path d="M54.3061 30.0679C52.9031 29.8239 52.0081 29.4149 51.5171 29.1089C51.1731 29.9999 50.8271 30.8009 50.5281 31.4679C51.4441 31.9669 52.6071 32.3629 53.8691 32.5819C54.5981 32.7089 55.3211 32.7729 56.0001 32.7729C56.4141 32.7729 56.8031 32.7399 57.1761 32.6929C57.3161 31.9749 57.4651 31.0879 57.6001 30.0149C57.1561 30.1719 56.0521 30.3719 54.3061 30.0679V30.0679ZM55.3661 25.3949C54.2731 25.2869 53.4321 25.0469 52.8411 24.7929C52.6561 25.6409 52.4281 26.4739 52.1711 27.2679C53.0351 27.5939 54.0521 27.8289 55.1161 27.9339C55.5451 27.9759 55.9711 27.9979 56.3861 27.9979C56.8881 27.9979 57.3641 27.9589 57.8211 27.8989C57.8891 27.0989 57.9461 26.2319 57.9861 25.2939C57.3581 25.4289 56.4771 25.5039 55.3661 25.3949V25.3949ZM55.6751 23.2619C56.4971 23.2619 57.3051 23.1789 58.0411 23.0339C58.0431 22.7879 58.0491 22.5499 58.0491 22.2969C58.0491 21.6559 58.0201 21.0349 57.9781 20.4239C57.4491 20.5619 56.6931 20.6959 55.6261 20.7099C54.5421 20.7049 53.7791 20.5549 53.2521 20.4039C53.2581 20.6079 53.2671 20.8049 53.2701 21.0149C53.2801 21.6709 53.2341 22.3379 53.1521 23.0039C53.9151 23.1649 54.7571 23.2569 55.6131 23.2609L55.6751 23.2619V23.2619ZM55.4261 18.6849C56.2511 18.5659 57.0161 18.3519 57.7301 18.0999C57.5971 17.2099 57.4311 16.3719 57.2451 15.5869C56.7491 15.7909 56.0461 16.0179 55.0641 16.1589C54.1541 16.2909 53.4591 16.2829 52.9351 16.2359C53.0351 17.0169 53.1181 17.8679 53.1771 18.7849C53.3291 18.7909 53.4671 18.8139 53.6231 18.8139C54.2111 18.8149 54.8231 18.7709 55.4261 18.6849ZM56.6971 13.5689C56.4091 12.6379 56.1131 11.8309 55.8451 11.1689C55.4021 11.3909 54.8411 11.6249 54.1081 11.8279C53.3131 12.0489 52.6711 12.1369 52.1571 12.1669C52.3401 12.8589 52.5281 13.6909 52.6971 14.6619C53.3781 14.5939 54.0801 14.4829 54.7911 14.2859C55.4701 14.0979 56.1011 13.8459 56.6971 13.5689Z" fill="#D99E82"/>
<path d="M68.6099 4.30479C68.5659 4.24379 64.1299 -1.68921 58.3759 0.914792C55.7949 2.08179 54.1289 3.98879 53.5249 6.44979C52.3999 4.88179 50.6899 3.88479 48.4319 3.48179C42.2329 2.37579 38.5069 9.24979 38.4699 9.31979C38.4159 9.42179 38.4389 9.54879 38.5259 9.62479C38.6129 9.70079 38.7429 9.70579 38.8369 9.63979C38.8649 9.61979 41.6829 7.64679 46.3799 8.48279C51.1809 9.33679 54.5469 10.1768 54.5809 10.1848C54.6009 10.1898 54.6219 10.1918 54.6419 10.1918C54.7109 10.1918 54.7779 10.1638 54.8259 10.1118C54.8579 10.0768 58.0459 6.65179 60.9789 5.32479C65.3179 3.36379 68.2769 4.66579 68.3049 4.67879C68.4089 4.72479 68.5319 4.69679 68.6029 4.60879C68.6749 4.52179 68.6779 4.39579 68.6099 4.30479Z" fill="#3E721D"/>
<path d="M63.8841 7.63022C59.4791 5.30222 56.0351 6.43722 53.8891 7.85022C51.3141 7.36322 46.5551 7.39122 42.5251 12.5572C37.5421 18.9442 41.9071 26.8992 41.9521 26.9792C42.0191 27.0982 42.1451 27.1702 42.2791 27.1702C42.2941 27.1702 42.3101 27.1692 42.3251 27.1672C42.4761 27.1482 42.6011 27.0402 42.6411 26.8932C42.6561 26.8392 44.1681 21.3732 47.9911 16.7752C50.0651 14.2792 52.5411 11.9692 54.2991 10.4352C56.0611 10.7332 58.6261 11.3822 61.1451 12.7892C66.1031 15.5622 68.3791 20.2552 68.4021 20.3022C68.4701 20.4462 68.6131 20.5282 68.7811 20.5142C68.9391 20.4962 69.0701 20.3812 69.1061 20.2272C69.1261 20.1392 71.0741 11.4272 63.8841 7.63022V7.63022Z" fill="#5C913B"/>
</svg>
