<svg width="200" height="255" viewBox="0 0 200 255" fill="none" xmlns="http://www.w3.org/2000/svg">
<rect x="50" y="100" width="100" height="100" rx="5" fill="#2350A4"/>
<rect x="120" y="170" width="20" height="20" rx="10" fill="#FED734"/>
<path d="M57.5081 111.048C57.0881 111.048 56.7081 110.956 56.3681 110.772C56.0321 110.584 55.7681 110.328 55.5761 110.004C55.3841 109.676 55.2881 109.308 55.2881 108.9C55.2881 108.492 55.3841 108.126 55.5761 107.802C55.7681 107.474 56.0341 107.218 56.3741 107.034C56.7141 106.846 57.0941 106.752 57.5141 106.752C57.8421 106.752 58.1421 106.808 58.4141 106.92C58.6861 107.028 58.9181 107.19 59.1101 107.406L58.7201 107.784C58.4041 107.452 58.0101 107.286 57.5381 107.286C57.2261 107.286 56.9441 107.356 56.6921 107.496C56.4401 107.636 56.2421 107.83 56.0981 108.078C55.9581 108.322 55.8881 108.596 55.8881 108.9C55.8881 109.204 55.9581 109.48 56.0981 109.728C56.2421 109.972 56.4401 110.164 56.6921 110.304C56.9441 110.444 57.2261 110.514 57.5381 110.514C58.0061 110.514 58.4001 110.346 58.7201 110.01L59.1101 110.388C58.9181 110.604 58.6841 110.768 58.4081 110.88C58.1361 110.992 57.8361 111.048 57.5081 111.048Z" fill="white"/>
<path d="M62.7464 107.82V111H62.2004V110.52C62.0844 110.684 61.9304 110.812 61.7384 110.904C61.5504 110.992 61.3444 111.036 61.1204 111.036C60.6964 111.036 60.3624 110.92 60.1184 110.688C59.8744 110.452 59.7524 110.106 59.7524 109.65V107.82H60.3284V109.584C60.3284 109.892 60.4024 110.126 60.5504 110.286C60.6984 110.442 60.9104 110.52 61.1864 110.52C61.4904 110.52 61.7304 110.428 61.9064 110.244C62.0824 110.06 62.1704 109.8 62.1704 109.464V107.82H62.7464Z" fill="white"/>
<path d="M64.395 108.354C64.495 108.17 64.643 108.03 64.839 107.934C65.035 107.838 65.273 107.79 65.553 107.79V108.348C65.521 108.344 65.477 108.342 65.421 108.342C65.109 108.342 64.863 108.436 64.683 108.624C64.507 108.808 64.419 109.072 64.419 109.416V111H63.843V107.82H64.395V108.354Z" fill="white"/>
<path d="M66.8149 108.354C66.9149 108.17 67.0629 108.03 67.2589 107.934C67.4549 107.838 67.6929 107.79 67.9729 107.79V108.348C67.9409 108.344 67.8969 108.342 67.8409 108.342C67.5289 108.342 67.2829 108.436 67.1029 108.624C66.9269 108.808 66.8389 109.072 66.8389 109.416V111H66.2629V107.82H66.8149V108.354Z" fill="white"/>
<path d="M71.5275 109.428C71.5275 109.472 71.5235 109.53 71.5155 109.602H68.9355C68.9715 109.882 69.0935 110.108 69.3015 110.28C69.5135 110.448 69.7755 110.532 70.0875 110.532C70.4675 110.532 70.7735 110.404 71.0055 110.148L71.3235 110.52C71.1795 110.688 70.9995 110.816 70.7835 110.904C70.5715 110.992 70.3335 111.036 70.0695 111.036C69.7335 111.036 69.4355 110.968 69.1755 110.832C68.9155 110.692 68.7135 110.498 68.5695 110.25C68.4295 110.002 68.3595 109.722 68.3595 109.41C68.3595 109.102 68.4275 108.824 68.5635 108.576C68.7035 108.328 68.8935 108.136 69.1335 108C69.3775 107.86 69.6515 107.79 69.9555 107.79C70.2595 107.79 70.5295 107.86 70.7655 108C71.0055 108.136 71.1915 108.328 71.3235 108.576C71.4595 108.824 71.5275 109.108 71.5275 109.428ZM69.9555 108.276C69.6795 108.276 69.4475 108.36 69.2595 108.528C69.0755 108.696 68.9675 108.916 68.9355 109.188H70.9755C70.9435 108.92 70.8335 108.702 70.6455 108.534C70.4615 108.362 70.2315 108.276 69.9555 108.276Z" fill="white"/>
<path d="M74.0253 107.79C74.4293 107.79 74.7493 107.908 74.9853 108.144C75.2253 108.376 75.3453 108.718 75.3453 109.17V111H74.7693V109.236C74.7693 108.928 74.6953 108.696 74.5473 108.54C74.3993 108.384 74.1873 108.306 73.9113 108.306C73.5993 108.306 73.3533 108.398 73.1733 108.582C72.9933 108.762 72.9033 109.022 72.9033 109.362V111H72.3273V107.82H72.8793V108.3C72.9953 108.136 73.1513 108.01 73.3473 107.922C73.5473 107.834 73.7733 107.79 74.0253 107.79Z" fill="white"/>
<path d="M78.1993 110.814C78.1153 110.886 78.0113 110.942 77.8873 110.982C77.7633 111.018 77.6353 111.036 77.5033 111.036C77.1833 111.036 76.9353 110.95 76.7593 110.778C76.5833 110.606 76.4953 110.36 76.4953 110.04V108.294H75.9553V107.82H76.4953V107.124H77.0713V107.82H77.9833V108.294H77.0713V110.016C77.0713 110.188 77.1133 110.32 77.1973 110.412C77.2853 110.504 77.4093 110.55 77.5693 110.55C77.7453 110.55 77.8953 110.5 78.0193 110.4L78.1993 110.814Z" fill="white"/>
<path d="M78.8957 106.548H79.4717V111H78.8957V106.548Z" fill="white"/>
<path d="M83.3855 107.82L81.8435 111.318C81.7075 111.642 81.5475 111.87 81.3635 112.002C81.1835 112.134 80.9655 112.2 80.7095 112.2C80.5535 112.2 80.4015 112.174 80.2535 112.122C80.1095 112.074 79.9895 112.002 79.8935 111.906L80.1395 111.474C80.3035 111.63 80.4935 111.708 80.7095 111.708C80.8495 111.708 80.9655 111.67 81.0575 111.594C81.1535 111.522 81.2395 111.396 81.3155 111.216L81.4175 110.994L80.0135 107.82H80.6135L81.7235 110.364L82.8215 107.82H83.3855Z" fill="white"/>
<path d="M88.5344 106.548V111H87.9824V110.496C87.8544 110.672 87.6924 110.806 87.4964 110.898C87.3004 110.99 87.0844 111.036 86.8484 111.036C86.5404 111.036 86.2644 110.968 86.0204 110.832C85.7764 110.696 85.5844 110.506 85.4444 110.262C85.3084 110.014 85.2404 109.73 85.2404 109.41C85.2404 109.09 85.3084 108.808 85.4444 108.564C85.5844 108.32 85.7764 108.13 86.0204 107.994C86.2644 107.858 86.5404 107.79 86.8484 107.79C87.0764 107.79 87.2864 107.834 87.4784 107.922C87.6704 108.006 87.8304 108.132 87.9584 108.3V106.548H88.5344ZM86.8964 110.532C87.0964 110.532 87.2784 110.486 87.4424 110.394C87.6064 110.298 87.7344 110.166 87.8264 109.998C87.9184 109.826 87.9644 109.63 87.9644 109.41C87.9644 109.19 87.9184 108.996 87.8264 108.828C87.7344 108.656 87.6064 108.524 87.4424 108.432C87.2784 108.34 87.0964 108.294 86.8964 108.294C86.6924 108.294 86.5084 108.34 86.3444 108.432C86.1844 108.524 86.0564 108.656 85.9604 108.828C85.8684 108.996 85.8224 109.19 85.8224 109.41C85.8224 109.63 85.8684 109.826 85.9604 109.998C86.0564 110.166 86.1844 110.298 86.3444 110.394C86.5084 110.486 86.6924 110.532 86.8964 110.532Z" fill="white"/>
<path d="M90.7822 107.79C91.2222 107.79 91.5582 107.898 91.7902 108.114C92.0262 108.33 92.1442 108.652 92.1442 109.08V111H91.5982V110.58C91.5022 110.728 91.3642 110.842 91.1842 110.922C91.0082 110.998 90.7982 111.036 90.5542 111.036C90.1982 111.036 89.9122 110.95 89.6962 110.778C89.4842 110.606 89.3782 110.38 89.3782 110.1C89.3782 109.82 89.4802 109.596 89.6842 109.428C89.8882 109.256 90.2122 109.17 90.6562 109.17H91.5682V109.056C91.5682 108.808 91.4962 108.618 91.3522 108.486C91.2082 108.354 90.9962 108.288 90.7162 108.288C90.5282 108.288 90.3442 108.32 90.1642 108.384C89.9842 108.444 89.8322 108.526 89.7082 108.63L89.4682 108.198C89.6322 108.066 89.8282 107.966 90.0562 107.898C90.2842 107.826 90.5262 107.79 90.7822 107.79ZM90.6502 110.592C90.8702 110.592 91.0602 110.544 91.2202 110.448C91.3802 110.348 91.4962 110.208 91.5682 110.028V109.584H90.6802C90.1922 109.584 89.9482 109.748 89.9482 110.076C89.9482 110.236 90.0102 110.362 90.1342 110.454C90.2582 110.546 90.4302 110.592 90.6502 110.592Z" fill="white"/>
<path d="M93.7621 108.354C93.8621 108.17 94.0102 108.03 94.2062 107.934C94.4022 107.838 94.6402 107.79 94.9202 107.79V108.348C94.8882 108.344 94.8442 108.342 94.7882 108.342C94.4762 108.342 94.2302 108.436 94.0502 108.624C93.8742 108.808 93.7862 109.072 93.7862 109.416V111H93.2102V107.82H93.7621V108.354Z" fill="white"/>
<path d="M96.8661 109.518L96.2061 110.13V111H95.6301V106.548H96.2061V109.404L97.9401 107.82H98.6361L97.2981 109.134L98.7681 111H98.0601L96.8661 109.518Z" fill="white"/>
<path d="M99.1505 111H102.15V111.372H99.1505V111Z" fill="white"/>
<path d="M104.382 107.79C104.69 107.79 104.966 107.858 105.21 107.994C105.454 108.13 105.644 108.32 105.78 108.564C105.92 108.808 105.99 109.09 105.99 109.41C105.99 109.73 105.92 110.014 105.78 110.262C105.644 110.506 105.454 110.696 105.21 110.832C104.966 110.968 104.69 111.036 104.382 111.036C104.146 111.036 103.93 110.99 103.734 110.898C103.538 110.806 103.376 110.672 103.248 110.496V111H102.696V106.548H103.272V108.3C103.4 108.132 103.56 108.006 103.752 107.922C103.944 107.834 104.154 107.79 104.382 107.79ZM104.334 110.532C104.538 110.532 104.72 110.486 104.88 110.394C105.044 110.298 105.172 110.166 105.264 109.998C105.36 109.826 105.408 109.63 105.408 109.41C105.408 109.19 105.36 108.996 105.264 108.828C105.172 108.656 105.044 108.524 104.88 108.432C104.72 108.34 104.538 108.294 104.334 108.294C104.134 108.294 103.952 108.34 103.788 108.432C103.624 108.524 103.496 108.656 103.404 108.828C103.312 108.996 103.266 109.19 103.266 109.41C103.266 109.63 103.312 109.826 103.404 109.998C103.496 110.166 103.624 110.298 103.788 110.394C103.952 110.486 104.134 110.532 104.334 110.532Z" fill="white"/>
<path d="M106.786 106.548H107.362V111H106.786V106.548Z" fill="white"/>
<path d="M111.426 107.82V111H110.88V110.52C110.764 110.684 110.61 110.812 110.418 110.904C110.23 110.992 110.024 111.036 109.8 111.036C109.376 111.036 109.042 110.92 108.798 110.688C108.554 110.452 108.432 110.106 108.432 109.65V107.82H109.008V109.584C109.008 109.892 109.082 110.126 109.23 110.286C109.378 110.442 109.59 110.52 109.866 110.52C110.17 110.52 110.41 110.428 110.586 110.244C110.762 110.06 110.85 109.8 110.85 109.464V107.82H111.426Z" fill="white"/>
<path d="M115.397 109.428C115.397 109.472 115.393 109.53 115.385 109.602H112.805C112.841 109.882 112.963 110.108 113.171 110.28C113.383 110.448 113.645 110.532 113.957 110.532C114.337 110.532 114.643 110.404 114.875 110.148L115.193 110.52C115.049 110.688 114.869 110.816 114.653 110.904C114.441 110.992 114.203 111.036 113.939 111.036C113.603 111.036 113.305 110.968 113.045 110.832C112.785 110.692 112.583 110.498 112.439 110.25C112.299 110.002 112.229 109.722 112.229 109.41C112.229 109.102 112.297 108.824 112.433 108.576C112.573 108.328 112.763 108.136 113.003 108C113.247 107.86 113.521 107.79 113.825 107.79C114.129 107.79 114.399 107.86 114.635 108C114.875 108.136 115.061 108.328 115.193 108.576C115.329 108.824 115.397 109.108 115.397 109.428ZM113.825 108.276C113.549 108.276 113.317 108.36 113.129 108.528C112.945 108.696 112.837 108.916 112.805 109.188H114.845C114.813 108.92 114.703 108.702 114.515 108.534C114.331 108.362 114.101 108.276 113.825 108.276Z" fill="white"/>
<path d="M74.9986 211.048C74.6826 211.048 74.3766 211 74.0806 210.904C73.7886 210.804 73.5586 210.676 73.3906 210.52L73.6126 210.052C73.7726 210.196 73.9766 210.314 74.2246 210.406C74.4766 210.494 74.7346 210.538 74.9986 210.538C75.3466 210.538 75.6066 210.48 75.7786 210.364C75.9506 210.244 76.0366 210.086 76.0366 209.89C76.0366 209.746 75.9886 209.63 75.8926 209.542C75.8006 209.45 75.6846 209.38 75.5446 209.332C75.4086 209.284 75.2146 209.23 74.9626 209.17C74.6466 209.094 74.3906 209.018 74.1946 208.942C74.0026 208.866 73.8366 208.75 73.6966 208.594C73.5606 208.434 73.4926 208.22 73.4926 207.952C73.4926 207.728 73.5506 207.526 73.6666 207.346C73.7866 207.166 73.9666 207.022 74.2066 206.914C74.4466 206.806 74.7446 206.752 75.1006 206.752C75.3486 206.752 75.5926 206.784 75.8326 206.848C76.0726 206.912 76.2786 207.004 76.4506 207.124L76.2526 207.604C76.0766 207.492 75.8886 207.408 75.6886 207.352C75.4886 207.292 75.2926 207.262 75.1006 207.262C74.7606 207.262 74.5046 207.324 74.3326 207.448C74.1646 207.572 74.0806 207.732 74.0806 207.928C74.0806 208.072 74.1286 208.19 74.2246 208.282C74.3206 208.37 74.4386 208.44 74.5786 208.492C74.7226 208.54 74.9166 208.592 75.1606 208.648C75.4766 208.724 75.7306 208.8 75.9226 208.876C76.1146 208.952 76.2786 209.068 76.4146 209.224C76.5546 209.38 76.6246 209.59 76.6246 209.854C76.6246 210.074 76.5646 210.276 76.4446 210.46C76.3246 210.64 76.1426 210.784 75.8986 210.892C75.6546 210.996 75.3546 211.048 74.9986 211.048Z" fill="black"/>
<path d="M79.1152 207.79C79.5192 207.79 79.8392 207.908 80.0752 208.144C80.3152 208.376 80.4352 208.718 80.4352 209.17V211H79.8592V209.236C79.8592 208.928 79.7852 208.696 79.6372 208.54C79.4892 208.384 79.2772 208.306 79.0012 208.306C78.6892 208.306 78.4432 208.398 78.2632 208.582C78.0832 208.762 77.9932 209.022 77.9932 209.362V211H77.4172V206.548H77.9932V208.27C78.1132 208.118 78.2692 208 78.4612 207.916C78.6572 207.832 78.8752 207.79 79.1152 207.79Z" fill="black"/>
<path d="M82.8807 211.036C82.5647 211.036 82.2807 210.966 82.0287 210.826C81.7767 210.686 81.5787 210.494 81.4347 210.25C81.2947 210.002 81.2248 209.722 81.2248 209.41C81.2248 209.098 81.2947 208.82 81.4347 208.576C81.5787 208.328 81.7767 208.136 82.0287 208C82.2807 207.86 82.5647 207.79 82.8807 207.79C83.1967 207.79 83.4787 207.86 83.7267 208C83.9787 208.136 84.1747 208.328 84.3147 208.576C84.4587 208.82 84.5308 209.098 84.5308 209.41C84.5308 209.722 84.4587 210.002 84.3147 210.25C84.1747 210.494 83.9787 210.686 83.7267 210.826C83.4787 210.966 83.1967 211.036 82.8807 211.036ZM82.8807 210.532C83.0847 210.532 83.2668 210.486 83.4268 210.394C83.5908 210.298 83.7188 210.166 83.8108 209.998C83.9028 209.826 83.9487 209.63 83.9487 209.41C83.9487 209.19 83.9028 208.996 83.8108 208.828C83.7188 208.656 83.5908 208.524 83.4268 208.432C83.2668 208.34 83.0847 208.294 82.8807 208.294C82.6767 208.294 82.4927 208.34 82.3287 208.432C82.1687 208.524 82.0407 208.656 81.9447 208.828C81.8527 208.996 81.8067 209.19 81.8067 209.41C81.8067 209.63 81.8527 209.826 81.9447 209.998C82.0407 210.166 82.1687 210.298 82.3287 210.394C82.4927 210.486 82.6767 210.532 82.8807 210.532Z" fill="black"/>
<path d="M88.2913 207.82V211H87.7453V210.52C87.6293 210.684 87.4753 210.812 87.2833 210.904C87.0953 210.992 86.8893 211.036 86.6653 211.036C86.2413 211.036 85.9073 210.92 85.6633 210.688C85.4193 210.452 85.2973 210.106 85.2973 209.65V207.82H85.8733V209.584C85.8733 209.892 85.9473 210.126 86.0953 210.286C86.2433 210.442 86.4553 210.52 86.7313 210.52C87.0353 210.52 87.2753 210.428 87.4513 210.244C87.6273 210.06 87.7153 209.8 87.7153 209.464V207.82H88.2913Z" fill="black"/>
<path d="M89.3879 206.548H89.9639V211H89.3879V206.548Z" fill="black"/>
<path d="M94.0637 206.548V211H93.5117V210.496C93.3837 210.672 93.2217 210.806 93.0257 210.898C92.8297 210.99 92.6137 211.036 92.3777 211.036C92.0697 211.036 91.7937 210.968 91.5497 210.832C91.3057 210.696 91.1137 210.506 90.9737 210.262C90.8377 210.014 90.7697 209.73 90.7697 209.41C90.7697 209.09 90.8377 208.808 90.9737 208.564C91.1137 208.32 91.3057 208.13 91.5497 207.994C91.7937 207.858 92.0697 207.79 92.3777 207.79C92.6057 207.79 92.8157 207.834 93.0077 207.922C93.1997 208.006 93.3597 208.132 93.4877 208.3V206.548H94.0637ZM92.4257 210.532C92.6257 210.532 92.8077 210.486 92.9717 210.394C93.1357 210.298 93.2637 210.166 93.3557 209.998C93.4477 209.826 93.4937 209.63 93.4937 209.41C93.4937 209.19 93.4477 208.996 93.3557 208.828C93.2637 208.656 93.1357 208.524 92.9717 208.432C92.8077 208.34 92.6257 208.294 92.4257 208.294C92.2217 208.294 92.0377 208.34 91.8737 208.432C91.7137 208.524 91.5857 208.656 91.4897 208.828C91.3977 208.996 91.3517 209.19 91.3517 209.41C91.3517 209.63 91.3977 209.826 91.4897 209.998C91.5857 210.166 91.7137 210.298 91.8737 210.394C92.0377 210.486 92.2217 210.532 92.4257 210.532Z" fill="black"/>
<path d="M98.4508 207.79C98.7588 207.79 99.0348 207.858 99.2788 207.994C99.5228 208.13 99.7128 208.32 99.8488 208.564C99.9888 208.808 100.059 209.09 100.059 209.41C100.059 209.73 99.9888 210.014 99.8488 210.262C99.7128 210.506 99.5228 210.696 99.2788 210.832C99.0348 210.968 98.7588 211.036 98.4508 211.036C98.2148 211.036 97.9988 210.99 97.8028 210.898C97.6068 210.806 97.4448 210.672 97.3168 210.496V211H96.7648V206.548H97.3408V208.3C97.4688 208.132 97.6288 208.006 97.8208 207.922C98.0128 207.834 98.2228 207.79 98.4508 207.79ZM98.4028 210.532C98.6068 210.532 98.7888 210.486 98.9488 210.394C99.1128 210.298 99.2408 210.166 99.3328 209.998C99.4288 209.826 99.4768 209.63 99.4768 209.41C99.4768 209.19 99.4288 208.996 99.3328 208.828C99.2408 208.656 99.1128 208.524 98.9488 208.432C98.7888 208.34 98.6068 208.294 98.4028 208.294C98.2028 208.294 98.0208 208.34 97.8568 208.432C97.6928 208.524 97.5648 208.656 97.4728 208.828C97.3808 208.996 97.3348 209.19 97.3348 209.41C97.3348 209.63 97.3808 209.826 97.4728 209.998C97.5648 210.166 97.6928 210.298 97.8568 210.394C98.0208 210.486 98.2028 210.532 98.4028 210.532Z" fill="black"/>
<path d="M103.729 209.428C103.729 209.472 103.725 209.53 103.717 209.602H101.137C101.173 209.882 101.295 210.108 101.503 210.28C101.715 210.448 101.977 210.532 102.289 210.532C102.669 210.532 102.975 210.404 103.207 210.148L103.525 210.52C103.381 210.688 103.201 210.816 102.985 210.904C102.773 210.992 102.535 211.036 102.271 211.036C101.935 211.036 101.637 210.968 101.377 210.832C101.117 210.692 100.915 210.498 100.771 210.25C100.631 210.002 100.561 209.722 100.561 209.41C100.561 209.102 100.629 208.824 100.765 208.576C100.905 208.328 101.095 208.136 101.335 208C101.579 207.86 101.853 207.79 102.157 207.79C102.461 207.79 102.731 207.86 102.967 208C103.207 208.136 103.393 208.328 103.525 208.576C103.661 208.824 103.729 209.108 103.729 209.428ZM102.157 208.276C101.881 208.276 101.649 208.36 101.461 208.528C101.277 208.696 101.169 208.916 101.137 209.188H103.177C103.145 208.92 103.035 208.702 102.847 208.534C102.663 208.362 102.433 208.276 102.157 208.276Z" fill="black"/>
<path d="M108.954 207.82L107.412 211.318C107.276 211.642 107.116 211.87 106.932 212.002C106.752 212.134 106.534 212.2 106.278 212.2C106.122 212.2 105.97 212.174 105.822 212.122C105.678 212.074 105.558 212.002 105.462 211.906L105.708 211.474C105.872 211.63 106.062 211.708 106.278 211.708C106.418 211.708 106.534 211.67 106.626 211.594C106.722 211.522 106.808 211.396 106.884 211.216L106.986 210.994L105.582 207.82H106.182L107.292 210.364L108.39 207.82H108.954Z" fill="black"/>
<path d="M112.278 209.428C112.278 209.472 112.274 209.53 112.266 209.602H109.686C109.722 209.882 109.844 210.108 110.052 210.28C110.264 210.448 110.526 210.532 110.838 210.532C111.218 210.532 111.524 210.404 111.756 210.148L112.074 210.52C111.93 210.688 111.75 210.816 111.534 210.904C111.322 210.992 111.084 211.036 110.82 211.036C110.484 211.036 110.186 210.968 109.926 210.832C109.666 210.692 109.464 210.498 109.32 210.25C109.18 210.002 109.11 209.722 109.11 209.41C109.11 209.102 109.178 208.824 109.314 208.576C109.454 208.328 109.644 208.136 109.884 208C110.128 207.86 110.402 207.79 110.706 207.79C111.01 207.79 111.28 207.86 111.516 208C111.756 208.136 111.942 208.328 112.074 208.576C112.21 208.824 112.278 209.108 112.278 209.428ZM110.706 208.276C110.43 208.276 110.198 208.36 110.01 208.528C109.826 208.696 109.718 208.916 109.686 209.188H111.726C111.694 208.92 111.584 208.702 111.396 208.534C111.212 208.362 110.982 208.276 110.706 208.276Z" fill="black"/>
<path d="M113.077 206.548H113.653V211H113.077V206.548Z" fill="black"/>
<path d="M114.753 206.548H115.329V211H114.753V206.548Z" fill="black"/>
<path d="M117.791 211.036C117.475 211.036 117.191 210.966 116.939 210.826C116.687 210.686 116.489 210.494 116.345 210.25C116.205 210.002 116.135 209.722 116.135 209.41C116.135 209.098 116.205 208.82 116.345 208.576C116.489 208.328 116.687 208.136 116.939 208C117.191 207.86 117.475 207.79 117.791 207.79C118.107 207.79 118.389 207.86 118.637 208C118.889 208.136 119.085 208.328 119.225 208.576C119.369 208.82 119.441 209.098 119.441 209.41C119.441 209.722 119.369 210.002 119.225 210.25C119.085 210.494 118.889 210.686 118.637 210.826C118.389 210.966 118.107 211.036 117.791 211.036ZM117.791 210.532C117.995 210.532 118.177 210.486 118.337 210.394C118.501 210.298 118.629 210.166 118.721 209.998C118.813 209.826 118.859 209.63 118.859 209.41C118.859 209.19 118.813 208.996 118.721 208.828C118.629 208.656 118.501 208.524 118.337 208.432C118.177 208.34 117.995 208.294 117.791 208.294C117.587 208.294 117.403 208.34 117.239 208.432C117.079 208.524 116.951 208.656 116.855 208.828C116.763 208.996 116.717 209.19 116.717 209.41C116.717 209.63 116.763 209.826 116.855 209.998C116.951 210.166 117.079 210.298 117.239 210.394C117.403 210.486 117.587 210.532 117.791 210.532Z" fill="black"/>
<path d="M124.962 207.82L123.774 211H123.222L122.304 208.588L121.374 211H120.822L119.64 207.82H120.186L121.11 210.352L122.07 207.82H122.556L123.498 210.364L124.446 207.82H124.962Z" fill="black"/>
<path d="M130 190V212" stroke="black" stroke-width="2"/>
<path d="M63.4904 72.0629L60.9816 74.8443V83H50V50H60.9816V61.9743L71.8686 50H84.0336L70.7799 64.52L84.6963 83H71.7739L63.4904 72.0629Z" fill="black"/>
<path d="M113.743 74.6086V83H86.1944V50H113.128V58.3914H97.176V62.2571H111.187V70.2714H97.176V74.6086H113.743Z" fill="black"/>
<path d="M137.504 71.0257V83H126.333V70.8843L113.836 50H125.623L132.392 61.4086L139.208 50H150L137.504 71.0257Z" fill="black"/>
</svg>
