<svg
  width="48"
  height="48"
  viewBox="0 0 48 48"
  fill="none"
  xmlns="http://www.w3.org/2000/svg"
>
  <path
    d="M12 12C10.9391 12 9.92172 12.4214 9.17157 13.1716C8.42143 13.9217 8 14.9391 8 16C8 17.0608 8.42143 18.0783 9.17157 18.8284C9.92172 19.5785 10.9391 20 12 20H12.6863C12.0464 21.8099 11.85 23.747 12.1138 25.6486C12.3775 27.5502 13.0936 29.3607 14.202 30.9282C15.3104 32.4957 16.7787 33.7744 18.4836 34.6569C20.1885 35.5394 22.0802 36 24 36C25.9198 36 27.8115 35.5394 29.5164 34.6569C31.2213 33.7744 32.6896 32.4957 33.798 30.9282C34.9064 29.3607 35.6225 27.5502 35.8862 25.6486C36.15 23.747 35.9536 21.8099 35.3137 20H36C37.0609 20 38.0783 19.5785 38.8284 18.8284C39.5786 18.0783 40 17.0608 40 16C40 14.9391 39.5786 13.9217 38.8284 13.1716C38.0783 12.4214 37.0609 12 36 12C36 13.0609 35.5786 14.0783 34.8284 14.8284C34.0783 15.5786 33.0609 16 32 16C30.9391 16 29.9217 15.5786 29.1716 14.8284C28.4214 14.0783 28 13.0609 28 12C28 12.5253 27.8965 13.0454 27.6955 13.5307C27.4945 14.016 27.1999 14.457 26.8284 14.8284C26.457 15.1999 26.016 15.4945 25.5307 15.6955C25.0454 15.8965 24.5253 16 24 16C23.4747 16 22.9546 15.8965 22.4693 15.6955C21.984 15.4945 21.543 15.1999 21.1716 14.8284C20.8001 14.457 20.5055 14.016 20.3045 13.5307C20.1035 13.0454 20 12.5253 20 12C20 13.0609 19.5786 14.0783 18.8284 14.8284C18.0783 15.5786 17.0609 16 16 16C14.9391 16 13.9217 15.5786 13.1716 14.8284C12.4214 14.0783 12 13.0609 12 12Z"
    fill="url(#paint0_linear_1406_369)"
  />
  <defs>
    <linearGradient
      id="paint0_linear_1406_369"
      x1="8"
      y1="12"
      x2="31.04"
      y2="42.72"
      gradientUnits="userSpaceOnUse"
    >
      <stop stop-color="#20DE88" />
      <stop offset="1" stop-color="#28BBE8" />
    </linearGradient>
  </defs>
</svg>
